<svg width="20" height="20" viewBox="0 0 20 20" fill="none" xmlns="http://www.w3.org/2000/svg">
<path d="M11.7666 11.7666C11.4371 12.1205 11.0163 12.3713 10.5463 12.4907C10.0763 12.6102 9.58069 12.5936 9.11984 12.4431C8.65899 12.2926 8.24815 12.0139 7.93489 11.6397C7.62163 11.2655 7.41772 10.8114 7.34375 10.3271M13.3604 13.3604C12.1256 14.3021 10.6051 14.8333 9.04167 14.8333C4.375 14.8333 2.5 10 2.5 10C3.31875 8.35417 4.42708 6.97917 5.72292 6.04167L13.3604 13.3604ZM8.26042 5.20833C8.51042 5.15833 8.77083 5.125 9.04167 5.125C13.7083 5.125 15.5833 9.95833 15.5833 9.95833C15.2354 10.7125 14.8146 11.4125 14.3333 12.0542L8.26042 5.20833Z" stroke="#667085" stroke-width="1.5" stroke-linecap="round" stroke-linejoin="round"/>
<path d="M2.5 2.5L17.5 17.5" stroke="#667085" stroke-width="1.5" stroke-linecap="round" stroke-linejoin="round"/>
</svg> 