<svg width="184" height="32" viewBox="0 0 184 32" fill="none" xmlns="http://www.w3.org/2000/svg">
<g clip-path="url(#clip0_1590_19661)">
<path d="M32.5942 19.561H36.2511C36.9089 22.1997 38.8295 23.142 41.3812 23.142C44.0648 23.142 46.1432 22.1457 46.1432 19.9111C46.1432 18.242 45.0644 17.4881 43.1966 17.3534L39.1449 16.9763C35.6197 16.6536 33.1993 14.5534 33.1993 11.1341C33.1993 7.2301 36.3828 4.80713 40.9603 4.80713C44.9068 4.80713 48.4056 6.71861 49.2739 10.8647H45.5907C44.8276 8.73781 42.9862 8.06465 40.8815 8.06465C38.1454 8.06465 36.6457 9.27629 36.6457 11.0264C36.6457 12.5878 37.8033 13.4494 39.5923 13.5841L43.5912 13.9608C47.1428 14.2843 49.5896 16.1688 49.5896 19.669C49.5896 23.6534 46.3801 26.3462 41.3812 26.3462C36.8297 26.3462 33.4622 24.4613 32.5942 19.561Z" fill="#121926"/>
<path d="M58.4976 14.5534C58.9185 12.7226 59.9709 11.9957 61.339 11.9957C62.7595 11.9957 63.7594 12.6956 64.1803 14.5534L66.2062 22.6846C66.2587 22.7919 66.3115 22.873 66.4167 22.873C66.5219 22.873 66.6007 22.7919 66.6271 22.6846L69.3105 12.2112H72.7044L69.3633 23.7882C68.7843 25.8074 67.7059 26.2922 66.4167 26.2922C65.1539 26.2922 64.0752 25.673 63.6278 23.7882L61.4967 15.6033C61.4707 15.4686 61.3918 15.415 61.2862 15.415C61.1813 15.415 61.1022 15.4686 61.0758 15.6033L58.9974 23.7882C58.5501 25.7267 57.5241 26.2922 56.2613 26.2922C54.8145 26.2922 53.7621 25.7267 53.2623 23.7882L50.0789 12.2112H53.5252L56.0773 22.6846C56.1036 22.8189 56.1825 22.873 56.2877 22.873C56.3666 22.873 56.4454 22.8189 56.4718 22.6846L58.4976 14.5534Z" fill="#121926"/>
<path d="M73.009 19.1572C73.009 14.9841 76.0609 11.9417 80.2175 11.9417C84.2692 11.9417 87.2682 14.9305 87.2682 18.9419V26.0767H84.2164V23.8152C83.1905 25.5112 81.5331 26.3462 79.7441 26.3462C75.9292 26.3462 73.009 23.3037 73.009 19.1572ZM80.1386 15.2265C77.9551 15.2265 76.3502 16.8956 76.3502 19.1572C76.3502 21.4189 77.9551 23.0883 80.1386 23.0883C82.3486 23.0883 83.9271 21.4188 83.9271 19.1572C83.9271 16.8957 82.3486 15.2265 80.1386 15.2265Z" fill="#121926"/>
<path d="M92.6251 24.3806V32H89.3364V19.1572C89.3364 15.0111 92.4146 11.9417 96.4924 11.9417C100.57 11.9417 103.622 14.9841 103.622 19.1572C103.622 23.3037 100.649 26.3462 96.8606 26.3462C95.2032 26.3462 93.5194 25.619 92.6251 24.3806ZM96.4924 23.0883C98.6231 23.0883 100.281 21.3922 100.281 19.1572C100.281 16.9223 98.6232 15.2265 96.4924 15.2265C94.3349 15.2265 92.6775 16.9226 92.6775 19.1572C92.6775 21.3919 94.3349 23.0883 96.4924 23.0883Z" fill="#121926"/>
<path d="M105.457 19.561H109.114C109.772 22.1997 111.692 23.142 114.244 23.142C116.928 23.142 119.006 22.1457 119.006 19.9111C119.006 18.242 117.927 17.4881 116.059 17.3534L112.008 16.9763C108.482 16.6536 106.062 14.5534 106.062 11.1341C106.062 7.2301 109.246 4.80713 113.823 4.80713C117.77 4.80713 121.269 6.71861 122.137 10.8647H118.453C117.691 8.73781 115.849 8.06465 113.744 8.06465C111.008 8.06465 109.508 9.27629 109.508 11.0264C109.508 12.5878 110.666 13.4494 112.455 13.5841L116.454 13.9608C120.006 14.2843 122.452 16.1688 122.452 19.669C122.452 23.6534 119.243 26.3462 114.244 26.3462C109.693 26.3462 106.325 24.4613 105.457 19.561Z" fill="#121926"/>
<path d="M127.239 24.3806V32H123.95V19.1572C123.95 15.0111 127.029 11.9417 131.106 11.9417C135.184 11.9417 138.236 14.9841 138.236 19.1572C138.236 23.3037 135.263 26.3462 131.475 26.3462C129.817 26.3462 128.133 25.619 127.239 24.3806ZM131.106 23.0883C133.238 23.0883 134.895 21.3922 134.895 19.1572C134.895 16.9223 133.238 15.2265 131.106 15.2265C128.949 15.2265 127.292 16.9226 127.292 19.1572C127.292 21.3919 128.949 23.0883 131.106 23.0883Z" fill="#121926"/>
<path d="M139.55 19.1572C139.55 14.9841 142.602 11.9417 146.759 11.9417C150.81 11.9417 153.81 14.9305 153.81 18.9419V26.0767H150.758V23.8152C149.732 25.5112 148.074 26.3462 146.285 26.3462C142.47 26.3462 139.55 23.3037 139.55 19.1572ZM146.68 15.2265C144.496 15.2265 142.891 16.8956 142.891 19.1572C142.891 21.4189 144.496 23.0883 146.68 23.0883C148.89 23.0883 150.468 21.4188 150.468 19.1572C150.468 16.8957 148.89 15.2265 146.68 15.2265Z" fill="#121926"/>
<path d="M162.323 26.3462C158.298 26.3462 155.351 23.3037 155.351 19.1572C155.351 14.9841 158.298 11.9417 162.323 11.9417C165.77 11.9417 168.453 14.2032 169.032 17.4881H165.612C165.138 16.1418 163.849 15.2266 162.297 15.2266C160.218 15.2266 158.692 16.8957 158.692 19.1573C158.692 21.4189 160.218 23.0883 162.297 23.0883C163.823 23.0883 165.138 22.1727 165.612 20.8267H169.032C168.427 24.1113 165.77 26.3462 162.323 26.3462Z" fill="#121926"/>
<path d="M177.107 26.3462C173.029 26.3462 170.109 23.3573 170.109 19.1572C170.109 14.9035 173.108 11.9417 177.265 11.9417C181.264 11.9417 184 14.7417 184 18.5381C184 19.1036 183.947 19.6957 183.816 20.3152H174.055C173.687 20.3152 173.503 20.5036 173.503 20.8267C173.503 22.119 175.107 23.4113 177.238 23.4113C178.633 23.4113 180.106 22.9806 180.685 21.7689H183.921C182.921 24.9727 180.264 26.3462 177.107 26.3462ZM173.424 17.7305H180.369C180.632 17.7305 180.79 17.5688 180.79 17.2998C180.79 16.0611 179.422 14.7958 177.318 14.7958C175.265 14.7958 173.766 15.8994 173.424 17.7305Z" fill="#121926"/>
<path d="M23.1995 20.7565L18.9524 22.3637C18.1002 22.6871 17.425 23.373 17.109 24.2452L15.5385 28.5916C14.5378 31.3699 10.6978 31.3699 9.69229 28.5916L8.12179 24.2452C7.80581 23.373 7.13543 22.6871 6.27835 22.3637L2.03619 20.7565C-0.678729 19.7274 -0.678729 15.7977 2.03619 14.7687L6.27835 13.1614C6.48912 13.083 6.69017 12.9802 6.87687 12.8577C8.62461 13.6759 10.5686 14.1316 12.6178 14.1316C14.667 14.1316 16.6063 13.6759 18.3538 12.8577C18.5406 12.9802 18.7417 13.083 18.9524 13.1614L23.1995 14.7687C25.9142 15.7977 25.9142 19.7274 23.1995 20.7565Z" fill="#121926"/>
<path d="M23.7788 8.32019C22.3855 10.2704 20.5228 11.8433 18.3538 12.8576C17.7889 12.4852 17.3484 11.9364 17.109 11.2798L15.5385 6.93341C14.5377 4.15516 10.6978 4.15516 9.69227 6.93341L8.12177 11.2798C7.88235 11.9364 7.44668 12.4852 6.87681 12.8576C4.71271 11.8433 2.84529 10.2704 1.45679 8.32019C-1.00912 4.86567 1.47117 0 5.65116 0H19.5796C23.7596 0 26.2399 4.86567 23.7788 8.32019Z" fill="#121926"/>
</g>
<defs>
<clipPath id="clip0_1590_19661">
<rect width="184" height="32" fill="white"/>
</clipPath>
</defs>
</svg> 